<svg xmlns="http://www.w3.org/2000/svg" width="64" height="64"><path fill="#ed7899" d="M25.173 5.006c-3.808.341-6.171 4.093-6.173 9.818 0 4.295 7.128 16.409 11.043 23.044-.106-22.728-.837-25.842-4.87-32.862zm-.016-.027zM26.003 40.069l.003.006.853-.523-.856.517zM10.2 14.004c-2.486 2.081-3.102 5.02-3.188 7.117-.167 4.033 1.393 7.802 3.02 9.44 1.131 1.116 4.375 2.913 8.132 4.993 2.369 1.313 5.055 2.8 7.788 4.43L10.2 14.004zM24.025 44.139a.126.126 0 00.013.016l.468-.886-.481.87zM2.007 32.003C3.004 43.421 12.402 44 14.28 44h9.481L2.074 32.011a.102.102 0 00-.067-.008zM8.961 48c.918 3.519 2.582 5 5.608 5 3.496 0 7.015-1.833 9.412-4.903.025-.033.02-.072.012-.097H8.961zM38.817 5.006c-4.024 6.765-4.758 9.856-4.816 32.788C37.672 31.573 45 19.1 45 14.825c-.002-5.729-2.368-9.482-6.183-9.819zM37.997 40.07l-.003.005.561.771-.51-.855-.048.079zm15.848-26.068L38.049 39.983c2.733-1.629 5.419-3.116 7.788-4.429 3.757-2.08 7.001-3.877 8.139-5.001 1.62-1.631 3.18-5.399 3.013-9.433-.088-2.097-.703-5.035-3.144-7.118zM61.97 32a.09.09 0 00-.044.011L40.165 44.04 49.72 44c1.878 0 11.275-.58 12.273-11.997A.085.085 0 0061.97 32zM40.007 48a.103.103 0 00.013.098C42.416 51.167 45.935 53 49.431 53c3.026 0 4.69-1.481 5.566-4.954L40.007 48z"/><g fill="#8d6c9f"><path d="M24.643 6.098c3.403 6.033 4.203 9.509 4.338 27.983C25.294 27.734 20 18.185 20 14.824c.001-4.821 1.762-8.082 4.643-8.726M25.238 4l-.06.002c-4.092.313-7.176 4.105-7.178 10.822 0 4.155 5.666 14.205 11.278 23.716a.89.89 0 00.78.46.94.94 0 00.942-.965c-.061-22.976-.82-26.327-4.977-33.555-.164-.286-.466-.48-.785-.48zM9.987 15.581l13.075 21.568a435.864 435.864 0 00-4.421-2.471c-3.536-1.958-6.875-3.808-7.901-4.82-1.438-1.449-2.883-4.989-2.73-8.696.069-1.634.484-3.824 1.977-5.581M10.169 13c-.235 0-.472.078-.664.241-5.691 4.858-3.484 14.699-.184 18.025 1.977 1.952 8.862 5.25 16.124 9.581.179.106.363.153.54.153.709 0 1.295-.753.873-1.449L11.056 13.486a1.033 1.033 0 00-.887-.486zM3.266 33.813L19.885 43H14.28c-2.264 0-9.362-.7-11.014-9.187M2.031 31c-.561 0-1.076.43-1.028 1.003C1.857 42.239 9.218 45 14.28 45h9.696c1.035 0 1.415-1.242.53-1.731L2.557 31.136A1.078 1.078 0 002.031 31zM21.795 49c-2.065 1.905-4.656 3-7.225 3-2.177 0-3.435-.861-4.23-3h11.455m2.248-2H8.961c-.624 0-1.092.64-.928 1.29.819 3.246 2.513 5.71 6.536 5.71 3.893 0 7.677-2.057 10.2-5.289.528-.676.093-1.711-.726-1.711zM39.337 6.095c2.893.633 4.662 3.897 4.663 8.731 0 3.361-5.295 12.911-8.983 19.258.129-18.718.924-22.169 4.32-27.989M38.754 4c-.315 0-.613.188-.779.467-4.237 7.114-4.922 10.575-4.975 33.568a.94.94 0 00.942.965.89.89 0 00.78-.46C40.334 29.03 46 18.98 46 14.826c-.002-6.724-3.09-10.516-7.187-10.824L38.754 4zM54.013 15.581c1.493 1.757 1.909 3.947 1.976 5.581.153 3.707-1.292 7.247-2.715 8.681-1.04 1.027-4.38 2.876-7.915 4.834a435.864 435.864 0 00-4.421 2.471l13.075-21.567M53.831 13c-.349 0-.696.171-.887.486L37.142 39.551c-.422.696.164 1.449.873 1.449.177 0 .361-.047.54-.153 7.263-4.331 14.147-7.629 16.124-9.581 3.3-3.326 5.507-13.167-.185-18.025a1.017 1.017 0 00-.663-.241zM60.734 33.813C59.082 42.3 51.984 43 49.72 43h-5.605l16.619-9.187M61.969 31c-.176 0-.357.042-.526.136L39.495 43.269c-.886.489-.506 1.731.529 1.731h9.696c5.062 0 12.422-2.761 13.277-12.997.048-.573-.467-1.003-1.028-1.003zM53.661 49c-.795 2.139-2.053 3-4.23 3-2.569 0-5.16-1.095-7.225-3h11.455m1.378-2H39.957c-.819 0-1.255 1.035-.727 1.711C41.754 51.943 45.538 54 49.431 54c4.024 0 5.717-2.464 6.536-5.71.164-.65-.303-1.29-.928-1.29zM49 60a1 1 0 01-1-1v-2a1 1 0 112 0v2a1 1 0 01-1 1zM44.031 59.371a1.002 1.002 0 01-.952-1.31l.618-1.901a1 1 0 111.903.619l-.618 1.901a1 1 0 01-.951.691zM39.499 57.238a1 1 0 01-.808-1.587l1.176-1.618a.998.998 0 111.617 1.175l-1.176 1.618a.993.993 0 01-.809.412zM35.851 53.809A1 1 0 0135.262 52l1.618-1.175a1 1 0 111.175 1.619l-1.618 1.175a.999.999 0 01-.586.19zM15 60a1 1 0 01-1-1v-2a1 1 0 112 0v2a1 1 0 01-1 1zM19.969 59.371c-.422 0-.813-.269-.951-.69L18.4 56.78a1.001 1.001 0 011.903-.619l.618 1.901a1.001 1.001 0 01-.952 1.309zM24.501 57.238a.999.999 0 01-.81-.412l-1.176-1.618a.998.998 0 01.221-1.396.997.997 0 011.396.221l1.176 1.618a.998.998 0 01-.807 1.587zM28.149 53.809c-.203 0-.409-.062-.587-.19l-1.618-1.175a1 1 0 111.175-1.619L28.737 52c.446.325.546.95.222 1.397a.998.998 0 01-.81.412z"/></g></svg>