<svg xmlns="http://www.w3.org/2000/svg" width="32" height="32" viewBox="0 0 24 24"><path d="M10.25 23C9.562 23 9 22.441 9 21.75V13H6.773a1.254 1.254 0 01-1.25-1.238l-.011-1.5A1.247 1.247 0 016.762 9H9V6.75c0-3.371 1.723-5.23 4.844-5.23 1.238 0 2.316.085 2.328.09a.92.92 0 01.844.921v2.285a.925.925 0 01-.926.926h-1.453c-.61 0-1.106.496-1.106 1.106L13.504 9h2.219c.355 0 .695.152.933.418.235.266.348.621.309.977l-.176 1.5A1.25 1.25 0 0115.547 13H13.5v8.75c0 .691-.563 1.25-1.25 1.25zm0 0" fill="#fff"/></svg>