<svg xmlns="http://www.w3.org/2000/svg" width="32" height="32" viewBox="0 0 24 24"><path d="M22 4c-.781.46-2.344 1.094-3.266 1.273l-.074.024A4.501 4.501 0 0011 8.5c0 .129-.012.371 0 .5-3.352 0-5.906-1.758-7.734-4-.2.5-.286 1.29-.286 2.031 0 1.403 1.094 2.778 2.797 3.63-.312.081-.66.14-1.02.14A2.683 2.683 0 013 10.184v.05c0 1.957 2.078 3.29 3.926 3.66-.375.223-1.13.247-1.5.247-.262 0-1.18-.121-1.426-.168.516 1.605 2.367 2.507 4.137 2.539C6.754 17.598 5.793 18 2.965 18H2c1.79 1.145 4.066 2 6.348 2C15.778 20 20 14.336 20 9c0-.086-.004-.266-.004-.45 0-.015.004-.034.004-.05 0-.027-.008-.055-.008-.082-.004-.137-.008-.262-.008-.328A8.268 8.268 0 0022 6a8.265 8.265 0 01-2.32.637C20.516 6.137 21.7 4.94 22 4zm0 0" fill="#fff"/></svg>