<svg height="512" width="512" xmlns="http://www.w3.org/2000/svg"><rect fill="#0296e5" height="352" rx="18" width="464" x="24" y="40"/><path d="M56 72h400v288H56z" fill="#43dcfe"/><path d="M88 120h336v176H88z" fill="#04957c"/><path d="M88 288h336v8H88z" fill="#03705d"/><path d="M80 296h352v32H80z" fill="#5f4623"/><rect fill="#fbb540" height="128" rx="48" width="96" x="120" y="168"/><path d="M184 256v9.88a23.975 23.975 0 01-32 0V256z" fill="#f6bb92"/><path d="M152 256h32v32h-32z" fill="#fdc9a6"/><path d="M184 256v9.88a23.975 23.975 0 01-32 0V256z" fill="#f6bb92"/><path d="M184 440h144l8 32H176z" fill="#0296e5"/><path d="M272 392v8a16 16 0 01-32 0v-8h-24v48h80v-48z" fill="#026ca2"/><path d="M272 296a8.007 8.007 0 01-7.7-10.2l16-56a8 8 0 1115.384 4.4l-16 56A8 8 0 01272 296zM312 208a8 8 0 01-7.153-4.422l-16-32a8 8 0 0114.31-7.156l7.363 14.725 9.892-29.677A8 8 0 01328 144h64a8 8 0 010 16h-58.234l-14.176 42.53a8 8 0 01-7.023 5.449c-.19.014-.38.021-.567.021z" fill="#eaeae8"/><path d="M375.314 188l6.343-6.343a8 8 0 00-11.314-11.314L364 176.686l-6.343-6.343a8 8 0 00-11.314 11.314l6.343 6.343-6.343 6.343a8 8 0 0011.314 11.314l6.343-6.343 6.343 6.343a8 8 0 1011.314-11.314z" fill="#eaeae8"/><g fill="#03705d"><path d="M328 240h-8a8 8 0 010-16h8a8 8 0 010 16zM392 240h-40a8 8 0 010-16h40a8 8 0 010 16zM360 272h-40a8 8 0 010-16h40a8 8 0 010 16z"/></g><path d="M184 280l26.274 4.379A26 26 0 01232 310.025V328l-24 32H104v-49.975a26 26 0 0121.726-25.646L152 280a19.23 19.23 0 0032 0z" fill="#ff6268"/><path d="M136 360h-32v-48l32 8zM240 360h-32l-4.8-24-3.2-16 32-8zM168 264a24 24 0 01-24-24v-16l32-16 16 16v16a24 24 0 01-24 24z" fill="#fdc9a6"/><path d="M200 320v40h8z" fill="#d32b39"/><path d="M232 360l16-48 8-24h32v24l-16 8-8 40z" fill="#fdc9a6"/></svg>