<svg height="512" width="512" xmlns="http://www.w3.org/2000/svg"><path d="M40 184h72v48H40z" fill="#0093b9"/><g fill="#c9c9c8"><path d="M40 216h96v43.47H40zM408.242 137.73l15.52-3.887 13.703 54.702-15.519 3.888z"/><path d="M434.723 188.894l13.703-54.702 15.52 3.888-13.704 54.702z"/></g><path d="M408 168h56v88h-56z" fill="#0093b9"/><path d="M302.238 240.953L284 168h-56l-18.238 72.953z" fill="#c9c9c8"/><path d="M211.2 406.4l9.6-12.8 96 72-9.6 12.8z" fill="#ce882a"/><path d="M195.21 465.578l96-72 9.6 12.8-96 72z" fill="#ce882a"/><path d="M413.54 264l4.92 32 27.48 178.59a15.814 15.814 0 1031.26-4.81L450.46 296l-4.92-32z" fill="#e9ae48"/><path d="M413.54 264l4.92 32h32l-4.92-32z" fill="#d7a148"/><path d="M98.46 264l-4.92 32-27.48 178.59a15.814 15.814 0 11-31.26-4.81L61.54 296l4.92-32z" fill="#e9ae48"/><path d="M98.46 264l-4.92 32h-32l4.92-32z" fill="#d7a148"/><rect fill="#0093b9" height="160" rx="24" width="240" x="136" y="24"/><rect fill="#2ba3c4" height="208" rx="8" transform="rotate(90 256 104)" width="128" x="192"/><path d="M384 248v-16a16 16 0 0116-16h16a16 16 0 0116 16v16z" fill="#c9c9c8"/><path d="M227.682 120.983l45.247-45.248 11.313 11.313-45.247 45.247zM261.616 132.3l22.624-22.625 11.313 11.313-22.625 22.625zM216.37 87.045l22.625-22.625 11.312 11.313-22.624 22.625z" fill="#5db9d2"/><path d="M472 280a16 16 0 0016-16v-16H24v16a16 16 0 0016 16zM240 360l-9.49 37.95-19.57 78.29a15.523 15.523 0 11-30.12-7.53l19.71-78.84L208 360z" fill="#e9ae48"/><path d="M240 360l-9.49 37.95a151.58 151.58 0 01-29.98-8.08L208 360z" fill="#d7a148"/><path d="M272 360l9.49 37.95 19.57 78.29a15.523 15.523 0 1030.12-7.53l-19.71-78.84L304 360z" fill="#e9ae48"/><path d="M272 360l9.49 37.95a151.58 151.58 0 0029.98-8.08L304 360z" fill="#d7a148"/><path d="M323.5 235.829L344 352s-32 32-88 32-88-32-88-32l20.5-116.171A24 24 0 01212.136 216h87.728a24 24 0 0123.636 19.829z" fill="#e3e4e2"/></svg>